# xmcd
#
# Track frame offsets:
#	180
#	13688
#	26028
#	39428
#	53261
#	66175
#	79454
#	95801
#	110719
#	122095
#	134063
#	148376
#	161024
#	176393
#	189868
#	205302
#	219725
#	231801
#	248028
#	263865
#	273537
#	288228
#	304222
#
# Disc length: 4244 seconds
#
# Revision: 0
# Processed by: cddbd v1.5.2PL0 Copyright (c) Steve Scherf et al.
# Submitted via: audiograbber 1.83.01
#
DISCID=5f109217
DTITLE=Various Artists - Blues goes on CD 9
DYEAR=1900
DGENRE=Blues
TTITLE0=Josh White - Silicosis Is Killin´ Me
TTITLE1=John Lee Hooker - High Priced Woman
TTITLE2=Bessie Smith - Dying Gambler´s Blues 
TTITLE3=Sonny Terry and Brownie Mc Ghee - Man Ain´t Nothin´ But A Fool
TTITLE4=Big Bill Broonzy - You Do Me Any Old Way
TTITLE5=John Lee Williamson - Jackson Blues
TTITLE6=B. B. King - The Other Night Blues
TTITLE7=Memphis Minnie - Bumble Bee
TTITLE8=John Lee Hooker - Blue Monday
TTITLE9=Lightnin Hopkins - Can´t Get That Woman Out Of My Mind
TTITLE10=Leadbelly - Alberta
TTITLE11=John Lee Hooker - Graveyard Blues
TTITLE12=Big Joe Williams - Baby Please Don´t Go
TTITLE13=Leadbelly - Death Letter Blues
TTITLE14=Big Bill Broonzy - Friendless Blues
TTITLE15=Muddy Waters - I Be Bound To Write To You
TTITLE16=Lightnin' Hopkins - Come Back Baby
TTITLE17=Bessie Smith - Beale Street Mama
TTITLE18=John Lee Hooker - Boogie Woogie
TTITLE19=Lightnin' Hopkins - Feel So Bad
TTITLE20=Sonny Boy Williamson - Doggin´ My Love Around
TTITLE21=John Lee Hooker - Good Business
TTITLE22=Blind Willie Johnson - Nobody´s Fault, But Mine
EXTD=
EXTT0=
EXTT1=
EXTT2=
EXTT3=
EXTT4=
EXTT5=
EXTT6=
EXTT7=
EXTT8=
EXTT9=
EXTT10=
EXTT11=
EXTT12=
EXTT13=
EXTT14=
EXTT15=
EXTT16=
EXTT17=
EXTT18=
EXTT19=
EXTT20=
EXTT21=
EXTT22=
PLAYORDER=
